Patient4_TMGait_0pt4_01_right_31_GRF.mot
version=1
nRows=52
nColumns=19
inDegrees=no
endheader
time	F1x	F1y	F1z	M1x	M1y	M1z	F2x	F2y	F2z	M2x	M2y	M2z	EC1x	EC1y	EC1z	EC2x	EC2y	EC2z
40.1	-4.3725	759.5959	44.7217	-302.7727	-52.9581	849.8399	-1.0644	3.5025	6.1349	0.92166	-3.8551	3.0136	-0.0592	0.0182	-0.0073	-0.0462	0.0165	0.9585
40.1139	-3.2206	754.1825	48.523	-299.755	-55.6444	844.1842	-1.0801	2.9629	4.1563	0.84673	-2.4586	2.6566	-0.0592	0.0182	-0.0073	-0.0462	0.0165	0.9585
40.1277	-1.6031	747.8557	51.543	-296.4487	-57.4385	836.7038	-1.0233	2.5571	2.4565	0.80225	-1.2777	2.4294	-0.0592	0.0182	-0.0073	-0.0462	0.0165	0.9585
40.1416	0.41904	741.3162	53.6153	-293.1919	-58.2062	828.0986	-0.93101	2.2956	1.1362	0.78753	-0.37276	2.332	-0.0592	0.0182	-0.0073	-0.0462	0.0165	0.9585
40.1554	2.761	735.4524	54.7812	-290.3609	-58.0123	819.3948	-0.83979	2.1744	0.21012	0.79902	0.25127	2.3529	-0.0592	0.0182	-0.0073	-0.0462	0.0165	0.9585
40.1693	5.3653	731.1706	55.1981	-288.3154	-57.0218	811.6761	-0.76978	2.1501	-0.38061	0.82443	0.64284	2.4374	-0.0592	0.0182	-0.0073	-0.0462	0.0165	0.9585
40.1831	8.1803	729.2716	55.1203	-287.3518	-55.4853	805.9391	-0.74189	2.171	-0.70536	0.84912	0.85589	2.5252	-0.0592	0.0182	-0.0073	-0.0462	0.0165	0.9585
40.197	11.1976	730.3417	54.7646	-287.6733	-53.6078	802.9297	-0.76299	2.1728	-0.84571	0.8537	0.95429	2.5475	-0.0592	0.0182	-0.0073	-0.0462	0.0165	0.9585
40.2109	14.3966	734.6376	54.3568	-289.3467	-51.5988	803.031	-0.83442	2.0672	-0.87067	0.81229	0.98989	2.4147	-0.0592	0.0182	-0.0073	-0.0462	0.0165	0.9585
40.2247	17.7772	741.9921	54.0314	-292.2696	-49.5765	806.1476	-0.95966	1.7591	-0.83714	0.69426	1.0024	2.0296	-0.0592	0.0182	-0.0073	-0.0462	0.0165	0.9585
40.2386	21.329	751.7656	53.9054	-296.1544	-47.6553	811.6636	-1.1137	1.1446	-0.78197	0.46308	1.0089	1.269	-0.0592	0.0182	-0.0073	-0.0462	0.0165	0.9585
40.2524	25.0066	762.9304	54.0241	-300.5642	-45.8952	818.5526	-1.2647	0.13273	-0.72122	0.083741	1.0081	0.022864	-0.0592	0.0182	-0.0073	-0.0462	0.0165	0.9585
40.2663	28.7672	774.1769	54.3916	-304.9565	-44.317	825.4959	-1.3677	-1.353	-0.65693	-0.47197	0.98323	-1.7991	-0.0592	0.0182	-0.0073	-0.0462	0.0165	0.9585
40.2801	32.5383	784.0647	54.962	-308.7402	-42.9074	831.0696	-1.3568	-3.3269	-0.583	-1.2082	0.90317	-4.2083	-0.0592	0.0182	-0.0073	-0.0462	0.0165	0.9585
40.294	36.2303	791.2157	55.6775	-311.3483	-41.6592	833.9386	-1.1372	-5.6647	-0.49362	-2.0806	0.726	-7.052	-0.0592	0.0182	-0.0073	-0.0462	0.0165	0.9585
40.3079	39.7317	794.5361	56.5002	-312.3246	-40.597	833.0648	-0.58548	-8.0547	-0.37634	-2.9734	0.39498	-9.9576	-0.0592	0.0182	-0.0073	-0.0462	0.0165	0.9585
40.3217	42.9443	793.4487	57.4	-311.422	-39.7571	827.9628	0.41815	-9.9074	-0.2203	-3.6672	-0.14244	-12.2064	-0.0592	0.0182	-0.0073	-0.0462	0.0165	0.9585
40.3356	45.8054	787.9567	58.3275	-308.6363	-39.1477	818.7349	1.9915	-10.2706	-0.014661	-3.8081	-0.93306	-12.633	-0.0592	0.0182	-0.0073	-0.0462	0.0165	0.9585
40.3494	48.3176	778.5348	59.2247	-304.1578	-38.7399	805.9403	4.2158	-7.7648	0.24239	-2.8855	-1.9976	-9.5342	-0.0592	0.0182	-0.0073	-0.0462	0.0165	0.9585
40.3633	50.528	765.8737	60.0162	-298.2679	-38.4605	790.321	7.0627	-0.58499	0.54024	-0.23031	-3.3008	-0.67255	-0.0592	0.0182	-0.0073	-0.0462	0.0165	0.9585
40.3771	52.4382	750.5321	60.6116	-291.2032	-38.228	772.4791	10.329	13.3936	0.84504	4.9449	-4.7126	16.5727	-0.0592	0.0182	-0.0073	-0.0462	0.0165	0.9585
40.391	53.9505	732.6194	60.8445	-283.0366	-37.9156	752.571	13.5296	36.3651	1.0962	13.448	-5.9678	44.8967	-0.0592	0.0182	-0.0073	-0.0462	0.0165	0.9585
40.4049	54.8715	711.6417	60.4847	-273.621	-37.3597	730.1284	15.7755	70.0411	1.1893	25.9061	-6.6082	86.3913	-0.0592	0.0182	-0.0073	-0.0462	0.0165	0.9585
40.4187	54.9756	686.6317	59.2666	-262.6389	-36.3669	704.1805	15.6672	114.8033	0.97175	42.4539	-5.9464	141.5098	-0.0592	0.0182	-0.0073	-0.0462	0.0165	0.9585
40.4326	54.0574	656.4645	56.9634	-249.7286	-34.7579	673.556	11.7457	168.95	0.16647	62.4341	-3.137	208.178	-0.0592	0.0182	-0.0073	-0.0462	0.0165	0.9585
40.4464	52.0344	620.3518	53.4647	-234.6735	-32.4194	637.3588	3.8609	228.4613	-1.6583	84.3027	2.3415	281.5119	-0.0592	0.0182	-0.0073	-0.0462	0.0165	0.9585
40.4603	48.9809	578.2327	48.7878	-217.5412	-29.3057	595.3489	-6.2501	287.9451	-4.7378	106.026	10.0586	354.8002	-0.0592	0.0182	-0.0073	-0.0462	0.0165	0.9585
40.4741	45.1125	530.7722	43.1654	-198.662	-25.5324	547.9654	-16.7653	343.8387	-9.1749	126.2518	19.4209	423.4698	-0.0592	0.0182	-0.0073	-0.0462	0.0165	0.9585
40.488	40.6622	479.0351	36.9614	-178.4802	-21.3465	496.0674	-26.422	395.3187	-14.5608	144.6895	29.4969	486.3328	-0.0592	0.0182	-0.0073	-0.0462	0.0165	0.9585
40.5019	35.7431	424.2123	30.6591	-157.4396	-17.1582	440.7276	-34.4727	442.787	-20.4383	161.5492	39.4526	543.8064	-0.0592	0.0182	-0.0073	-0.0462	0.0165	0.9585
40.5157	30.379	367.744	24.6464	-136.0384	-13.3376	383.3578	-40.6144	487.1366	-26.1197	177.2549	48.3939	596.9148	-0.0592	0.0182	-0.0073	-0.0462	0.0165	0.9585
40.5296	24.5629	311.3634	19.2319	-114.8642	-10.1952	325.7421	-44.772	529.3331	-31.2195	192.2427	55.8381	646.8098	-0.0592	0.0182	-0.0073	-0.0462	0.0165	0.9585
40.5434	18.3489	257.0227	14.6104	-94.5808	-7.9228	269.9197	-47.0315	570.1437	-35.4682	206.8509	61.5447	694.4222	-0.0592	0.0182	-0.0073	-0.0462	0.0165	0.9585
40.5573	11.8826	206.6912	10.8812	-75.867	-6.5886	217.974	-47.6981	609.737	-38.926	221.1556	65.7119	740.0473	-0.0592	0.0182	-0.0073	-0.0462	0.0165	0.9585
40.5711	5.4841	162.0119	8.0571	-59.2953	-6.1122	171.65	-47.2299	647.4609	-41.7224	234.8996	68.6842	783.0352	-0.0592	0.0182	-0.0073	-0.0462	0.0165	0.9585
40.585	-0.39506	123.9598	6.0541	-45.2089	-6.2615	132.0017	-46.1698	682.0055	-44.1128	247.5593	70.9548	821.9729	-0.0592	0.0182	-0.0073	-0.0462	0.0165	0.9585
40.5989	-5.3277	92.6537	4.7275	-33.6472	-6.7404	99.2081	-44.976	711.9554	-46.2388	258.5673	72.8518	855.3128	-0.0592	0.0182	-0.0073	-0.0462	0.0165	0.9585
40.6127	-8.9846	67.4978	3.8594	-24.3912	-7.216	72.6936	-43.8533	736.1666	-48.1283	267.4663	74.4788	881.7753	-0.0592	0.0182	-0.0073	-0.0462	0.0165	0.9585
40.6266	-11.1817	47.5427	3.2493	-17.0879	-7.4192	51.5281	-42.845	753.9009	-49.7555	273.9593	75.8139	900.5316	-0.0592	0.0182	-0.0073	-0.0462	0.0165	0.9585
40.6404	-11.8327	31.8466	2.7233	-11.3798	-7.1449	34.7733	-41.8807	764.8619	-51.048	277.9276	76.7489	911.2444	-0.0592	0.0182	-0.0073	-0.0462	0.0165	0.9585
40.6543	-10.9964	19.6727	2.1805	-6.9829	-6.3109	21.689	-40.8515	769.2528	-51.969	279.4421	77.2	914.1657	-0.0592	0.0182	-0.0073	-0.0462	0.0165	0.9585
40.6681	-8.9963	10.5512	1.6038	-3.7119	-5.0173	11.8063	-39.6576	767.745	-52.4918	278.7509	77.1079	910.0989	-0.0592	0.0182	-0.0073	-0.0462	0.0165	0.9585
40.682	-6.5198	4.2206	1.0545	-1.4588	-3.5746	4.8868	-38.2285	761.4193	-52.6814	276.2551	76.5239	900.3258	-0.0592	0.0182	-0.0073	-0.0462	0.0165	0.9585
40.6959	-4.1457	0.27484	0.61125	-0.06745	-2.2667	0.5407	-36.5515	751.7765	-52.5954	272.5113	75.5213	886.609	-0.0592	0.0182	-0.0073	-0.0462	0.0165	0.9585
40.7097	-2.162	-1.8291	0.28245	0.66256	-1.2079	-1.8015	-34.6433	740.6864	-52.3309	268.2081	74.2299	871.1263	-0.0592	0.0182	-0.0073	-0.0462	0.0165	0.9585
40.7236	-0.66546	-2.6553	0.06927	0.93541	-0.43375	-2.7497	-32.5813	730.1519	-51.9816	264.0804	72.8019	856.2202	-0.0592	0.0182	-0.0073	-0.0462	0.0165	0.9585
40.7374	0.35229	-2.6783	-0.057231	0.92281	0.086225	-2.8101	-30.506	721.9519	-51.6496	260.7804	71.4144	843.9702	-0.0592	0.0182	-0.0073	-0.0462	0.0165	0.9585
40.7513	0.9756	-2.2645	-0.11572	0.75646	0.39857	-2.3833	-28.5661	717.3925	-51.3949	258.7901	70.1974	835.8879	-0.0592	0.0182	-0.0073	-0.0462	0.0165	0.9585
40.7651	1.2973	-1.6665	-0.12843	0.52764	0.55478	-1.7398	-26.9046	717.2028	-51.253	258.379	69.2447	832.8067	-0.0592	0.0182	-0.0073	-0.0462	0.0165	0.9585
40.779	1.4159	-1.0488	-0.11975	0.295	0.60783	-1.0651	-25.5953	721.4621	-51.2437	259.5805	68.6038	834.7889	-0.0592	0.0182	-0.0073	-0.0462	0.0165	0.9585
40.7929	1.4104	-0.49497	-0.094065	0.089646	0.58903	-0.46555	-24.656	729.6528	-51.3619	262.2109	68.265	841.2085	-0.0592	0.0182	-0.0073	-0.0462	0.0165	0.9585
40.8067	1.3387	-0.030634	-0.063914	-0.077283	0.52882	0.031821	-24.0533	740.795	-51.5834	265.9167	68.1739	850.9171	-0.0592	0.0182	-0.0073	-0.0462	0.0165	0.9585
